# xmcd CD database file
#
# Track frame offsets:
#	150
#	14780
#	30605
#	47002
#	71160
#	109787
#	125885
#	146755
#	160852
#	213545
#
# Disc length: 3056 seconds
#
# Revision: 0
# Processed by: cddbd v1.5.2PL0 Copyright (c) Steve Scherf et al.
# Submitted via: CDex 1.60beta1-cs1
#
DISCID=9b0bee0a
DTITLE=Dizzy Gillespie - Coleção Jazz Folha de São Paulo - No. 16
DYEAR=2007
DGENRE=Jazz
TTITLE0=Manteca
TTITLE1=Tin Tin Deo
TTITLE2=Ooh-Shoo-Be-Doo-Bee
TTITLE3=Birks Works
TTITLE4=School Days
TTITLE5=They Can't Take That Away From Me
TTITLE6=Alone Together
TTITLE7=Lady Be Good
TTITLE8=The Mooche
TTITLE9=There Is No Greater Love
EXTD=
EXTT0=
EXTT1=
EXTT2=
EXTT3=
EXTT4=
EXTT5=
EXTT6=
EXTT7=
EXTT8=
EXTT9=
PLAYORDER=
